{
  "accessors": [
    {
      "bufferView": 2,
      "componentType": 5126,
      "count": 65532,
      "max": [
        1.0000001192092896,
        2.8199994564056396,
        1.000000238418579
      ],
      "min": [
        -1.0000001192092896,
        -0.19000065326690674,
        -1.0000001192092896
      ],
      "type": "VEC3"
    },
    {
      "bufferView": 2,
      "byteOffset": 786384,
      "componentType": 5126,
      "count": 65532,
      "max": [
        0.9998417496681213,
        1.0,
        0.9998261332511902
      ],
      "min": [
        -0.9997835755348206,
        0.008563579991459846,
        -0.9994418025016785
      ],
      "type": "VEC3"
    },
    {
      "bufferView": 1,
      "componentType": 5126,
      "count": 65532,
      "max": [
        1.0000001192092896,
        1.0000001192092896
      ],
      "min": [
        0.0,
        0.0
      ],
      "type": "VEC2"
    },
    {
      "bufferView": 0,
      "componentType": 5125,
      "count": 383991,
      "type": "SCALAR"
    },
    {
      "bufferView": 2,
      "byteOffset": 1572768,
      "componentType": 5126,
      "count": 65532,
      "max": [
        1.0000001192092896,
        3.779998779296875,
        0.9296876192092896
      ],
      "min": [
        -0.9531251192092896,
        -0.5399994254112244,
        -1.0000001192092896
      ],
      "type": "VEC3"
    },
    {
      "bufferView": 2,
      "byteOffset": 2359152,
      "componentType": 5126,
      "count": 65532,
      "max": [
        0.9998502135276794,
        1.0,
        0.9998809099197388
      ],
      "min": [
        -0.9998388886451721,
        0.006819563917815685,
        -0.99969482421875
      ],
      "type": "VEC3"
    },
    {
      "bufferView": 1,
      "byteOffset": 524256,
      "componentType": 5126,
      "count": 65532,
      "max": [
        1.0000001192092896,
        1.0000001192092896
      ],
      "min": [
        0.023437485098838806,
        0.03515622764825821
      ],
      "type": "VEC2"
    },
    {
      "bufferView": 0,
      "byteOffset": 1535964,
      "componentType": 5125,
      "count": 385047,
      "type": "SCALAR"
    },
    {
      "bufferView": 2,
      "byteOffset": 3145536,
      "componentType": 5126,
      "count": 65532,
      "max": [
        1.0000001192092896,
        3.2699995040893555,
        0.6250001192092896
      ],
      "min": [
        -0.8242188692092896,
        -0.5799993872642517,
        -1.0000001192092896
      ],
      "type": "VEC3"
    },
    {
      "bufferView": 2,
      "byteOffset": 3931920,
      "componentType": 5126,
      "count": 65532,
      "max": [
        0.9998499751091003,
        1.0,
        0.9999079704284668
      ],
      "min": [
        -0.9997712969779968,
        0.005971895530819893,
        -0.9998983144760132
      ],
      "type": "VEC3"
    },
    {
      "bufferView": 1,
      "byteOffset": 1048512,
      "componentType": 5126,
      "count": 65532,
      "max": [
        1.0000001192092896,
        1.0000001192092896
      ],
      "min": [
        0.0878906399011612,
        0.1875000149011612
      ],
      "type": "VEC2"
    },
    {
      "bufferView": 0,
      "byteOffset": 3076152,
      "componentType": 5125,
      "count": 385563,
      "type": "SCALAR"
    },
    {
      "bufferView": 2,
      "byteOffset": 4718304,
      "componentType": 5126,
      "count": 65532,
      "max": [
        1.000000238418579,
        2.7899999618530273,
        0.3632812201976776
      ],
      "min": [
        -0.3945313096046448,
        -0.24999727308750153,
        -1.000000238418579
      ],
      "type": "VEC3"
    },
    {
      "bufferView": 2,
      "byteOffset": 5504688,
      "componentType": 5126,
      "count": 65532,
      "max": [
        0.9998356103897095,
        1.0,
        0.9996892809867859
      ],
      "min": [
        -0.99973064661026,
        0.010013495571911335,
        -0.9998736381530762
      ],
      "type": "VEC3"
    },
    {
      "bufferView": 1,
      "byteOffset": 1572768,
      "componentType": 5126,
      "count": 65532,
      "max": [
        1.000000238418579,
        1.000000238418579
      ],
      "min": [
        0.3027343451976776,
        0.3183594048023224
      ],
      "type": "VEC2"
    },
    {
      "bufferView": 0,
      "byteOffset": 4618404,
      "componentType": 5125,
      "count": 386637,
      "type": "SCALAR"
    },
    {
      "bufferView": 2,
      "byteOffset": 6291072,
      "componentType": 5126,
      "count": 7013,
      "max": [
        1.0000001192092896,
        2.4199984073638916,
        0.9648438692092896
      ],
      "min": [
        -0.96484375,
        -0.49999943375587463,
        -1.0000001192092896
      ],
      "type": "VEC3"
    },
    {
      "bufferView": 2,
      "byteOffset": 6375228,
      "componentType": 5126,
      "count": 7013,
      "max": [
        0.9994451999664307,
        1.0,
        0.9975754618644714
      ],
      "min": [
        -0.9974460005760193,
        0.023659273982048035,
        -0.9960373044013977
      ],
      "type": "VEC3"
    },
    {
      "bufferView": 1,
      "byteOffset": 2097024,
      "componentType": 5126,
      "count": 7013,
      "max": [
        1.0000001192092896,
        1.0000001192092896
      ],
      "min": [
        0.01757810264825821,
        0.017578110098838806
      ],
      "type": "VEC2"
    },
    {
      "bufferView": 0,
      "byteOffset": 6164952,
      "componentType": 5125,
      "count": 31626,
      "type": "SCALAR"
    },
    {
      "bufferView": 3,
      "componentType": 5126,
      "count": 250,
      "max": [
        15.625
      ],
      "min": [
        0.0625
      ],
      "type": "SCALAR"
    },
    {
      "bufferView": 5,
      "componentType": 5126,
      "count": 250,
      "max": [
        0.0,
        0.9999241828918457,
        -0.0,
        0.9999905228614807
      ],
      "min": [
        0.0,
        -0.9999905824661255,
        -0.0,
        0.004350155591964722
      ],
      "type": "VEC4"
    },
    {
      "bufferView": 3,
      "byteOffset": 1000,
      "componentType": 5126,
      "count": 45,
      "max": [
        15.625
      ],
      "min": [
        0.0625
      ],
      "type": "SCALAR"
    },
    {
      "bufferView": 4,
      "componentType": 5126,
      "count": 45,
      "max": [
        1.0000001192092896,
        0.9999999403953552,
        1.0000001192092896
      ],
      "min": [
        1.0,
        0.9999999403953552,
        1.0
      ],
      "type": "VEC3"
    },
    {
      "bufferView": 3,
      "byteOffset": 1180,
      "componentType": 5126,
      "count": 250,
      "max": [
        15.625
      ],
      "min": [
        0.0625
      ],
      "type": "SCALAR"
    },
    {
      "bufferView": 5,
      "byteOffset": 4000,
      "componentType": 5126,
      "count": 250,
      "max": [
        0.0,
        0.9999784231185913,
        -0.0,
        0.9999989867210388
      ],
      "min": [
        0.0,
        -0.9998867511749268,
        -0.0,
        0.0065693543292582035
      ],
      "type": "VEC4"
    },
    {
      "bufferView": 3,
      "byteOffset": 2180,
      "componentType": 5126,
      "count": 59,
      "max": [
        15.625
      ],
      "min": [
        0.0625
      ],
      "type": "SCALAR"
    },
    {
      "bufferView": 4,
      "byteOffset": 540,
      "componentType": 5126,
      "count": 59,
      "max": [
        1.0000001192092896,
        0.9999999403953552,
        1.0000001192092896
      ],
      "min": [
        0.9999999403953552,
        0.9999999403953552,
        0.9999999403953552
      ],
      "type": "VEC3"
    },
    {
      "bufferView": 3,
      "byteOffset": 2416,
      "componentType": 5126,
      "count": 250,
      "max": [
        15.625
      ],
      "min": [
        0.0625
      ],
      "type": "SCALAR"
    },
    {
      "bufferView": 5,
      "byteOffset": 8000,
      "componentType": 5126,
      "count": 250,
      "max": [
        0.0,
        0.9999784231185913,
        -0.0,
        0.9999989867210388
      ],
      "min": [
        0.0,
        -0.9998867511749268,
        -0.0,
        0.0065693543292582035
      ],
      "type": "VEC4"
    },
    {
      "bufferView": 3,
      "byteOffset": 3416,
      "componentType": 5126,
      "count": 59,
      "max": [
        15.625
      ],
      "min": [
        0.0625
      ],
      "type": "SCALAR"
    },
    {
      "bufferView": 4,
      "byteOffset": 1248,
      "componentType": 5126,
      "count": 59,
      "max": [
        1.0000001192092896,
        0.9999999403953552,
        1.0000001192092896
      ],
      "min": [
        0.9999999403953552,
        0.9999999403953552,
        0.9999999403953552
      ],
      "type": "VEC3"
    }
  ],
  "animations": [
    {
      "channels": [
        {
          "sampler": 0,
          "target": {
            "node": 9,
            "path": "rotation"
          }
        },
        {
          "sampler": 1,
          "target": {
            "node": 9,
            "path": "scale"
          }
        },
        {
          "sampler": 2,
          "target": {
            "node": 10,
            "path": "rotation"
          }
        },
        {
          "sampler": 3,
          "target": {
            "node": 10,
            "path": "scale"
          }
        },
        {
          "sampler": 4,
          "target": {
            "node": 11,
            "path": "rotation"
          }
        },
        {
          "sampler": 5,
          "target": {
            "node": 11,
            "path": "scale"
          }
        }
      ],
      "name": "Animation",
      "samplers": [
        {
          "input": 20,
          "interpolation": "LINEAR",
          "output": 21
        },
        {
          "input": 22,
          "interpolation": "LINEAR",
          "output": 23
        },
        {
          "input": 24,
          "interpolation": "LINEAR",
          "output": 25
        },
        {
          "input": 26,
          "interpolation": "LINEAR",
          "output": 27
        },
        {
          "input": 28,
          "interpolation": "LINEAR",
          "output": 29
        },
        {
          "input": 30,
          "interpolation": "LINEAR",
          "output": 31
        }
      ]
    }
  ],
  "asset": {
    "extras": {
      "author": "danielLOL300 (https://sketchfab.com/danielLOL300)",
      "license": "CC-BY-4.0 (http://creativecommons.org/licenses/by/4.0/)",
      "source": "https://sketchfab.com/3d-models/heightmap-mini-map-fortnite-b268c76c06b8425f8cafb57da58feda4",
      "title": "Heightmap Mini Map Fortnite"
    },
    "generator": "Sketchfab-13.74.0",
    "version": "2.0"
  },
  "bufferViews": [
    {
      "buffer": 0,
      "byteLength": 6291456,
      "name": "floatBufferViews",
      "target": 34963
    },
    {
      "buffer": 0,
      "byteLength": 2153128,
      "byteOffset": 6291456,
      "byteStride": 8,
      "name": "floatBufferViews",
      "target": 34962
    },
    {
      "buffer": 0,
      "byteLength": 6459384,
      "byteOffset": 8444584,
      "byteStride": 12,
      "name": "floatBufferViews",
      "target": 34962
    },
    {
      "buffer": 0,
      "byteLength": 3652,
      "byteOffset": 14903968,
      "name": "floatBufferViews"
    },
    {
      "buffer": 0,
      "byteLength": 1956,
      "byteOffset": 14907620,
      "byteStride": 12,
      "name": "floatBufferViews"
    },
    {
      "buffer": 0,
      "byteLength": 12000,
      "byteOffset": 14909576,
      "byteStride": 16,
      "name": "floatBufferViews"
    }
  ],
  "buffers": [
    {
      "byteLength": 14921576,
      "uri": "scene.bin"
    }
  ],
  "images": [
    {
      "uri": "textures/Material_baseColor.png"
    }
  ],
  "materials": [
    {
      "doubleSided": true,
      "name": "Material",
      "pbrMetallicRoughness": {
        "baseColorTexture": {
          "index": 0
        },
        "metallicFactor": 0.0,
        "roughnessFactor": 0.5
      }
    }
  ],
  "meshes": [
    {
      "name": "Object_0",
      "primitives": [
        {
          "attributes": {
            "NORMAL": 1,
            "POSITION": 0,
            "TEXCOORD_0": 2
          },
          "indices": 3,
          "material": 0,
          "mode": 4
        }
      ]
    },
    {
      "name": "Object_1",
      "primitives": [
        {
          "attributes": {
            "NORMAL": 5,
            "POSITION": 4,
            "TEXCOORD_0": 6
          },
          "indices": 7,
          "material": 0,
          "mode": 4
        }
      ]
    },
    {
      "name": "Object_2",
      "primitives": [
        {
          "attributes": {
            "NORMAL": 9,
            "POSITION": 8,
            "TEXCOORD_0": 10
          },
          "indices": 11,
          "material": 0,
          "mode": 4
        }
      ]
    },
    {
      "name": "Object_3",
      "primitives": [
        {
          "attributes": {
            "NORMAL": 13,
            "POSITION": 12,
            "TEXCOORD_0": 14
          },
          "indices": 15,
          "material": 0,
          "mode": 4
        }
      ]
    },
    {
      "name": "Object_4",
      "primitives": [
        {
          "attributes": {
            "NORMAL": 17,
            "POSITION": 16,
            "TEXCOORD_0": 18
          },
          "indices": 19,
          "material": 0,
          "mode": 4
        }
      ]
    }
  ],
  "nodes": [
    {
      "children": [
        1
      ],
      "matrix": [
        1.0,
        0.0,
        0.0,
        0.0,
        0.0,
        2.220446049250313e-16,
        -1.0,
        0.0,
        0.0,
        1.0,
        2.220446049250313e-16,
        0.0,
        0.0,
        0.0,
        0.0,
        1.0
      ],
      "name": "Sketchfab_model"
    },
    {
      "children": [
        2
      ],
      "name": "root"
    },
    {
      "children": [
        3,
        9,
        10,
        11
      ],
      "matrix": [
        1.0,
        0.0,
        0.0,
        0.0,
        0.0,
        2.220446049250313e-16,
        1.0,
        0.0,
        0.0,
        -1.0,
        2.220446049250313e-16,
        0.0,
        0.0,
        0.0,
        0.0,
        1.0
      ],
      "name": "GLTF_SceneRootNode"
    },
    {
      "children": [
        4,
        5,
        6,
        7,
        8
      ],
      "matrix": [
        0.0,
        0.0,
        168.30044555664063,
        0.0,
        -0.0,
        8.415021896362305,
        0.0,
        0.0,
        -168.30044555664063,
        -0.0,
        0.0,
        0.0,
        0.0,
        0.0,
        0.0,
        1.0
      ],
      "name": "Plane_0"
    },
    {
      "mesh": 0,
      "name": "Object_4"
    },
    {
      "mesh": 1,
      "name": "Object_5"
    },
    {
      "mesh": 2,
      "name": "Object_6"
    },
    {
      "mesh": 3,
      "name": "Object_7"
    },
    {
      "mesh": 4,
      "name": "Object_8"
    },
    {
      "name": "MCH_Rotation_target_1"
    },
    {
      "name": "MCH_Rotation_target.001_2"
    },
    {
      "name": "MCH_Rotation_target.002_3"
    }
  ],
  "samplers": [
    {
      "magFilter": 9729,
      "minFilter": 9987,
      "wrapS": 10497,
      "wrapT": 10497
    }
  ],
  "scene": 0,
  "scenes": [
    {
      "name": "Sketchfab_Scene",
      "nodes": [
        0
      ]
    }
  ],
  "textures": [
    {
      "sampler": 0,
      "source": 0
    }
  ]
}
