{
  "accessors": [
    {
      "bufferView": 2,
      "componentType": 5126,
      "count": 65532,
      "max": [
        13.372590065002441,
        -1.915774941444397,
        21.524049758911133
      ],
      "min": [
        -16.41023826599121,
        -14.215938568115234,
        -13.51630973815918
      ],
      "type": "VEC3"
    },
    {
      "bufferView": 2,
      "byteOffset": 786384,
      "componentType": 5126,
      "count": 65532,
      "max": [
        0.9999931454658508,
        1.0,
        0.9998071193695068
      ],
      "min": [
        -0.9999796152114868,
        -0.9999992251396179,
        -0.9999831318855286
      ],
      "type": "VEC3"
    },
    {
      "bufferView": 1,
      "componentType": 5126,
      "count": 65532,
      "max": [
        0.9942870140075684,
        0.9997259974479675
      ],
      "min": [
        0.0002800000074785203,
        0.0005849999724887311
      ],
      "type": "VEC2"
    },
    {
      "bufferView": 0,
      "componentType": 5125,
      "count": 293448,
      "type": "SCALAR"
    },
    {
      "bufferView": 2,
      "byteOffset": 1572768,
      "componentType": 5126,
      "count": 54046,
      "max": [
        13.423535346984863,
        -2.013848066329956,
        21.609386444091797
      ],
      "min": [
        -16.648740768432617,
        -14.215938568115234,
        -13.51630973815918
      ],
      "type": "VEC3"
    },
    {
      "bufferView": 2,
      "byteOffset": 2221320,
      "componentType": 5126,
      "count": 54046,
      "max": [
        0.9998491406440735,
        1.0,
        0.9997273683547974
      ],
      "min": [
        -0.999974250793457,
        -0.9999993443489075,
        -0.9999958872795105
      ],
      "type": "VEC3"
    },
    {
      "bufferView": 1,
      "byteOffset": 524256,
      "componentType": 5126,
      "count": 54046,
      "max": [
        0.9977899789810181,
        0.9997259974479675
      ],
      "min": [
        0.00027099999715574086,
        0.0004670000053010881
      ],
      "type": "VEC2"
    },
    {
      "bufferView": 0,
      "byteOffset": 1173792,
      "componentType": 5125,
      "count": 131781,
      "type": "SCALAR"
    }
  ],
  "asset": {
    "extras": {
      "author": "EDCN-photography-test-chamber (https://sketchfab.com/EDCN-photography-test-chamber)",
      "license": "CC-BY-4.0 (http://creativecommons.org/licenses/by/4.0/)",
      "source": "https://sketchfab.com/3d-models/de-cache-2-jean-gibaja-8b4f1ac8e2f0472da751958221efdb33",
      "title": "de_cache 2 Jean GIBAJA"
    },
    "generator": "Sketchfab-12.68.0",
    "version": "2.0"
  },
  "bufferViews": [
    {
      "buffer": 0,
      "byteLength": 1700916,
      "name": "floatBufferViews",
      "target": 34963
    },
    {
      "buffer": 0,
      "byteLength": 956624,
      "byteOffset": 1700916,
      "byteStride": 8,
      "name": "floatBufferViews",
      "target": 34962
    },
    {
      "buffer": 0,
      "byteLength": 2869872,
      "byteOffset": 2657540,
      "byteStride": 12,
      "name": "floatBufferViews",
      "target": 34962
    }
  ],
  "buffers": [
    {
      "byteLength": 5527412,
      "uri": "scene.bin"
    }
  ],
  "images": [
    {
      "uri": "textures/material_baseColor.png"
    }
  ],
  "materials": [
    {
      "doubleSided": true,
      "name": "material",
      "pbrMetallicRoughness": {
        "baseColorTexture": {
          "index": 0
        },
        "metallicFactor": 0.0,
        "roughnessFactor": 0.6
      }
    }
  ],
  "meshes": [
    {
      "name": "Object_0",
      "primitives": [
        {
          "attributes": {
            "NORMAL": 1,
            "POSITION": 0,
            "TEXCOORD_0": 2
          },
          "indices": 3,
          "material": 0,
          "mode": 4
        }
      ]
    },
    {
      "name": "Object_1",
      "primitives": [
        {
          "attributes": {
            "NORMAL": 5,
            "POSITION": 4,
            "TEXCOORD_0": 6
          },
          "indices": 7,
          "material": 0,
          "mode": 4
        }
      ]
    }
  ],
  "nodes": [
    {
      "children": [
        1
      ],
      "matrix": [
        0.5708521604537964,
        0.0,
        0.0,
        0.0,
        0.0,
        -0.5708521604537964,
        -2.535092848771276e-16,
        0.0,
        0.0,
        2.535092848771276e-16,
        -0.5708521604537964,
        0.0,
        0.0,
        -4.019275665283206,
        12.112384796142576,
        1.0
      ],
      "name": "Sketchfab_model"
    },
    {
      "children": [
        2,
        3
      ],
      "name": "cs1.obj.cleaner.materialmerger.gles"
    },
    {
      "mesh": 0,
      "name": "Object_2"
    },
    {
      "mesh": 1,
      "name": "Object_3"
    }
  ],
  "samplers": [
    {
      "magFilter": 9729,
      "minFilter": 9987,
      "wrapS": 10497,
      "wrapT": 10497
    }
  ],
  "scene": 0,
  "scenes": [
    {
      "name": "Sketchfab_Scene",
      "nodes": [
        0
      ]
    }
  ],
  "textures": [
    {
      "sampler": 0,
      "source": 0
    }
  ]
}
