<?xml version="1.0" encoding="utf-8"?>
<!-- Generator: Adobe Illustrator 25.0.0, SVG Export Plug-In . SVG Version: 6.00 Build 0)  -->
<svg version="1.1" id="Layer_1" xmlns="http://www.w3.org/2000/svg" xmlns:xlink="http://www.w3.org/1999/xlink" x="0px" y="0px"
	 viewBox="0 0 512 512" style="enable-background:new 0 0 512 512;" xml:space="preserve">
<g transform="translate(0.000000,441.000000) scale(0.100000,-0.100000)">
	<path fill="#6f52f4" id="XMLID_45_" d="M492.8,1850c0-317.2,0.8-576.6,1.8-576.6c1.6,0,214.7,39.5,240.8,44.7l13.6,2.6v211.8v211.6h81.1h81.1v38.7
		c0,21.2,0.8,76.4,1.8,122.9l1.6,84.2H832h-82.9v92.8v92.8h95.4c52.6,0,95.4,0.5,95.4,1.3c0,2.9,20.9,226.2,22.2,237.4l1.6,12.3
		H728.2H492.8V1850z"/>
	<path fill="#6f52f4" id="XMLID_44_" d="M4404.4,2392.9l-208.7-17.3v-520.9v-520.9l8.6-1.3c7.6-1.3,411.6-30.6,419.7-30.3c2.4,0,3.1,27.7,3.1,129.4
		V1561h-88.9h-88.9v94.1v94.1h75.8h75.8v112.4v112.4h-78.5h-78.5v74.5v74.5l6,1c3.1,0.8,29.8,1.8,59.4,2.9c29.6,0.8,68,2.1,85.8,3.1
		l31.9,1.6v139.4v139.6l-7.1-0.3C4616,2410.4,4518.9,2402.6,4404.4,2392.9z"/>
	<path fill="#6f52f4" id="XMLID_43_" d="M3064.7,2356.8c2.6-26.2,32.4-420.2,31.9-420.8c-0.3-0.5-38.7,93.9-85.5,209.7
		c-46.5,115.8-85.8,211.8-86.8,213.6c-1.6,2.9-73.7-10.5-192.2-35.6l-11.2-2.4V1872v-449.5h116.4h116.4l-1.3,18.8
		c-2.6,35-12.3,324.8-11.2,336.3c0.8,10.2,8.6-7.6,82.9-187c45-109,83.2-199.3,84.2-200.8c1.6-1.6,37.9,0.8,99.6,6
		c53.6,4.7,97.5,8.9,97.5,9.2c0.3,0.3-1,188.8-2.9,418.9s-3.4,447.4-3.4,483.3l-0.3,64.6h-117.7h-117.9L3064.7,2356.8z"/>
	<path fill="#6f52f4" d="M1223.7,2355.8c-156.4-10.5-242.4-117.4-269.6-334.5c-5.5-45-7.8-197.7-3.9-251c13.1-173.1,59.9-285.6,143-342.8
		c44.7-30.6,111.9-47.1,178.3-43.1c75.6,4.2,127.1,25.6,173.4,71.9c37.9,37.9,58.6,73.5,78.5,134.2c27.7,84.7,40.3,211.3,34,343.1
		c-7.1,147.5-29.3,239.3-75.1,309.6c-43.7,66.9-112.7,107-193.3,111.9c-12.8,0.8-26.4,1.6-30.1,2.1
		C1255.3,2357.3,1239.7,2356.8,1223.7,2355.8z M1260.6,2150.2c19.1-20.7,27.2-103,27.2-279.3c0-217-13.6-307.3-43.4-287.9
		c-12.8,8.6-22.5,50.7-27.2,120.6c-3.4,51-3.4,284.5,0,333.4c5,69,13.9,107.2,27.2,116.4C1251.7,2158.6,1253,2158.3,1260.6,2150.2z"
		/>
	<path fill="#6f52f4" d="M1591.1,1880.3v-476.2h120h119.8l1.6,33.2c1,18.6,3.1,78.7,4.7,134.2c1.6,55.4,3.7,104.1,4.7,108
		c1.3,5.5,12.6-29.8,47.1-149.1c25.1-86,46.3-157.4,47.3-158.5c2.1-2.4,247.4,17,250,19.6c0.8,1-26.4,86.6-60.4,190.6l-61.7,188.8
		l13.1,11.5c43.4,37.9,79.2,111.1,89.4,183.6c4.4,31.6,1.6,110.1-5.2,139.1c-26.2,113.8-95.4,202.1-183.8,235.1
		c-38.4,14.1-35.3,13.9-217,14.9l-169.5,1V1880.3z M1860.7,2130.9c18.6-9.2,33.7-32.7,41.8-65.1c5.5-21.7,4.7-90.5-1.3-112.4
		c-11.2-41.3-31.1-65.4-60.9-74.5l-6-1.6v130.8v131l8.6-1.8C1847.4,2136.3,1855.5,2133.5,1860.7,2130.9z"/>
	<path fill="#6f52f4" id="XMLID_35_" d="M2174.3,2231.8v-121.6h66.7h66.7v-350.4v-350.4h125.5h125.5v329.5v329.5h68h68V2190v121.6l-5.8,1
		c-5.5,1.3-504.2,41.1-511.2,40.8C2175.1,2353.4,2174.3,2327.2,2174.3,2231.8z"/>
	<path fill="#6f52f4" id="XMLID_33_" d="M3353.7,1852.6V1378h129.4h129.4v474.6v474.6h-129.4h-129.4V1852.6z"/>
	<path fill="#6f52f4" id="XMLID_32_" d="M3908.1,2294.3c-141.7-7.6-259.7-13.9-262-13.9c-4.4-0.3-4.7-7.8-4.7-123.2v-122.9h66.7h66.7v-343.9v-343.9
		h126.8h126.8v358.3v358.3h70.6h70.6V2186c0,67.7-0.8,122.6-1.8,122.6C4166.4,2308.4,4049.8,2302.1,3908.1,2294.3z"/>
</g>
</svg>
